<svg aria-hidden="true" style="position: absolute; width: 0; height: 0; overflow: hidden;" version="1.1" xmlns="http://www.w3.org/2000/svg" xmlns:xlink="http://www.w3.org/1999/xlink">
<defs>
<symbol id="icon-github" viewBox="0 0 32 32">
<path d="M16 0.395c-8.836 0-16 7.163-16 16 0 7.069 4.585 13.067 10.942 15.182 0.8 0.148 1.094-0.347 1.094-0.77 0-0.381-0.015-1.642-0.022-2.979-4.452 0.968-5.391-1.888-5.391-1.888-0.728-1.849-1.776-2.341-1.776-2.341-1.452-0.993 0.11-0.973 0.11-0.973 1.606 0.113 2.452 1.649 2.452 1.649 1.427 2.446 3.743 1.739 4.656 1.33 0.143-1.034 0.558-1.74 1.016-2.14-3.554-0.404-7.29-1.777-7.29-7.907 0-1.747 0.625-3.174 1.649-4.295-0.166-0.403-0.714-2.030 0.155-4.234 0 0 1.344-0.43 4.401 1.64 1.276-0.355 2.645-0.532 4.005-0.539 1.359 0.006 2.729 0.184 4.008 0.539 3.054-2.070 4.395-1.64 4.395-1.64 0.871 2.204 0.323 3.831 0.157 4.234 1.026 1.12 1.647 2.548 1.647 4.295 0 6.145-3.743 7.498-7.306 7.895 0.574 0.497 1.085 1.47 1.085 2.963 0 2.141-0.019 3.864-0.019 4.391 0 0.426 0.288 0.925 1.099 0.768 6.354-2.118 10.933-8.113 10.933-15.18 0-8.837-7.164-16-16-16z"></path>
</symbol>
<symbol id="logo-rsschool" xmlns="http://www.w3.org/2000/svg" viewBox="0 0 552.85 198.67"><title>rs_school</title><g data-name="Layer 2"><g data-name="Layer 1"><path d="M275.36 61.37l26.29-1.65q.86 6.41 3.48 9.76 4.28 5.43 12.2 5.43 5.91 0 9.12-2.77a8.34 8.34 0 0 0 3.2-6.44 8.18 8.18 0 0 0-3-6.22q-3-2.74-14.15-5.19-18.18-4.08-25.93-10.86a21.84 21.84 0 0 1-7.81-17.26 23.44 23.44 0 0 1 4-13 26.47 26.47 0 0 1 12-9.64q8-3.51 22-3.51 17.14 0 26.14 6.38t10.71 20.28l-26.05 1.52q-1-6-4.36-8.78t-9.2-2.77c-3.21 0-5.63.69-7.25 2.05a6.25 6.25 0 0 0-2.44 5 5 5 0 0 0 2 3.84q1.95 1.77 9.27 3.3 18.12 3.9 26 7.9t11.4 9.91a25.12 25.12 0 0 1 3.57 13.24 28.37 28.37 0 0 1-4.75 15.86 29.83 29.83 0 0 1-13.3 11q-8.55 3.75-21.54 3.75-22.81 0-31.6-8.78t-10-22.35zM6.27 91V1.53h46.06q12.81 0 19.58 2.19a20.93 20.93 0 0 1 10.92 8.14A24.75 24.75 0 0 1 87 26.35a24.8 24.8 0 0 1-3.2 12.84A24.91 24.91 0 0 1 75.07 48a33.63 33.63 0 0 1-9.7 3.54 27.79 27.79 0 0 1 7.19 3.29A27.79 27.79 0 0 1 77 59.49 35.16 35.16 0 0 1 80.85 65l13.38 26H63L48.24 63.63q-2.81-5.31-5-6.9a11.63 11.63 0 0 0-6.78-2.07H34V91zM34 37.76h11.68A41 41 0 0 0 53 36.54a7.3 7.3 0 0 0 4.48-2.81 8.24 8.24 0 0 0 1.74-5.18 8.23 8.23 0 0 0-2.75-6.65q-2.74-2.32-10.31-2.32H34zM0 167.56l26.29-1.64q.86 6.41 3.48 9.76Q34 181.11 42 181.11q5.91 0 9.12-2.78a8.34 8.34 0 0 0 3.2-6.44 8.2 8.2 0 0 0-3-6.22q-3-2.74-14.15-5.18-18.18-4.1-25.93-10.86a21.87 21.87 0 0 1-7.81-17.27 23.49 23.49 0 0 1 4-13 26.47 26.47 0 0 1 12-9.64q8-3.51 22-3.51 17.14 0 26.14 6.38t10.71 20.28l-26 1.53q-1-6-4.36-8.79t-9.19-2.74q-4.81 0-7.25 2a6.25 6.25 0 0 0-2.44 5 5 5 0 0 0 2 3.85q1.95 1.77 9.27 3.29 18.12 3.9 26 7.9t11.4 9.91a25.15 25.15 0 0 1 3.57 13.24 28.35 28.35 0 0 1-4.75 15.86 29.83 29.83 0 0 1-13.3 11q-8.55 3.75-21.54 3.75-22.81 0-31.6-8.78T0 167.56zm163-7.01l24.22 7.32a44.72 44.72 0 0 1-7.69 17 33.46 33.46 0 0 1-13 10.31q-7.78 3.47-19.8 3.47-14.58 0-23.82-4.23t-16-14.91q-6.72-10.67-6.71-27.31 0-22.18 11.8-34.11t33.4-11.92q16.91 0 26.57 6.84t14.36 21l-24.4 5.43a21 21 0 0 0-2.68-6 16 16 0 0 0-5.67-4.88 16.31 16.31 0 0 0-7.51-1.71q-9.39 0-14.39 7.56-3.8 5.61-3.79 17.61 0 14.86 4.52 20.38t12.69 5.51q7.92 0 12-4.45t5.9-12.91zm45.51-52.83h27.63V139h30.2v-31.28h27.75v89.43h-27.75V161h-30.2v36.18h-27.63zm102.78 44.77q0-21.88 12.2-34.1t34-12.2q22.32 0 34.4 12T404 151.76q0 15.69-5.28 25.72a37.54 37.54 0 0 1-15.25 15.61q-10 5.58-24.86 5.58-15.12 0-25-4.82a37.59 37.59 0 0 1-16.07-15.25q-6.26-10.42-6.25-26.11zm27.63.13q0 13.55 5 19.46t13.7 5.91q8.91 0 13.79-5.79t4.88-20.8q0-12.63-5.1-18.46t-13.82-5.82A16.78 16.78 0 0 0 344 133q-5.07 6-5.08 19.62z"/><path d="M392.28 152.49q0-21.88 12.2-34.1t34-12.2q22.34 0 34.41 12t12.07 33.58q0 15.69-5.27 25.72a37.6 37.6 0 0 1-15.25 15.61q-10 5.58-24.86 5.58-15.13 0-25-4.82a37.67 37.67 0 0 1-16.08-15.25q-6.22-10.43-6.22-26.12zm27.64.13q0 13.55 5 19.46t13.72 5.92q8.91 0 13.79-5.79t4.88-20.8q0-12.63-5.09-18.46t-13.82-5.82A16.77 16.77 0 0 0 425 133q-5.09 6-5.08 19.62z"/><path d="M482.08 107.72h27.64v67.41h43.13v22h-70.77z"/></g></g></symbol></defs>
<symbol id="icon-volume-high" viewBox="0 0 34 32">
<path d="M27.814 28.814c-0.384 0-0.768-0.146-1.061-0.439-0.586-0.586-0.586-1.535 0-2.121 2.739-2.739 4.247-6.38 4.247-10.253s-1.508-7.514-4.247-10.253c-0.586-0.586-0.586-1.536 0-2.121s1.536-0.586 2.121 0c3.305 3.305 5.126 7.7 5.126 12.374s-1.82 9.069-5.126 12.374c-0.293 0.293-0.677 0.439-1.061 0.439zM22.485 25.985c-0.384 0-0.768-0.146-1.061-0.439-0.586-0.586-0.586-1.535 0-2.121 4.094-4.094 4.094-10.755 0-14.849-0.586-0.586-0.586-1.536 0-2.121s1.536-0.586 2.121 0c2.55 2.55 3.954 5.94 3.954 9.546s-1.404 6.996-3.954 9.546c-0.293 0.293-0.677 0.439-1.061 0.439v0zM17.157 23.157c-0.384 0-0.768-0.146-1.061-0.439-0.586-0.586-0.586-1.535 0-2.121 2.534-2.534 2.534-6.658 0-9.192-0.586-0.586-0.586-1.536 0-2.121s1.535-0.586 2.121 0c3.704 3.704 3.704 9.731 0 13.435-0.293 0.293-0.677 0.439-1.061 0.439z"></path>
<path d="M13 30c-0.26 0-0.516-0.102-0.707-0.293l-7.707-7.707h-3.586c-0.552 0-1-0.448-1-1v-10c0-0.552 0.448-1 1-1h3.586l7.707-7.707c0.286-0.286 0.716-0.372 1.090-0.217s0.617 0.519 0.617 0.924v26c0 0.404-0.244 0.769-0.617 0.924-0.124 0.051-0.254 0.076-0.383 0.076z"></path>
</symbol>
<symbol id="icon-volume-medium" viewBox="0 0 32 32">
<path d="M22.485 25.985c-0.384 0-0.768-0.146-1.061-0.439-0.586-0.586-0.586-1.535 0-2.121 4.094-4.094 4.094-10.755 0-14.849-0.586-0.586-0.586-1.536 0-2.121s1.536-0.586 2.121 0c2.55 2.55 3.954 5.94 3.954 9.546s-1.404 6.996-3.954 9.546c-0.293 0.293-0.677 0.439-1.061 0.439v0zM17.157 23.157c-0.384 0-0.768-0.146-1.061-0.439-0.586-0.586-0.586-1.535 0-2.121 2.534-2.534 2.534-6.658 0-9.192-0.586-0.586-0.586-1.536 0-2.121s1.535-0.586 2.121 0c3.704 3.704 3.704 9.731 0 13.435-0.293 0.293-0.677 0.439-1.061 0.439z"></path>
<path d="M13 30c-0.26 0-0.516-0.102-0.707-0.293l-7.707-7.707h-3.586c-0.552 0-1-0.448-1-1v-10c0-0.552 0.448-1 1-1h3.586l7.707-7.707c0.286-0.286 0.716-0.372 1.090-0.217s0.617 0.519 0.617 0.924v26c0 0.404-0.244 0.769-0.617 0.924-0.124 0.051-0.254 0.076-0.383 0.076z"></path>
</symbol>
<symbol id="icon-volume-low" viewBox="0 0 32 32">
<path d="M17.157 23.157c-0.384 0-0.768-0.146-1.061-0.439-0.586-0.586-0.586-1.535 0-2.121 2.534-2.534 2.534-6.658 0-9.192-0.586-0.586-0.586-1.536 0-2.121s1.535-0.586 2.121 0c3.704 3.704 3.704 9.731 0 13.435-0.293 0.293-0.677 0.439-1.061 0.439z"></path>
<path d="M13 30c-0.26 0-0.516-0.102-0.707-0.293l-7.707-7.707h-3.586c-0.552 0-1-0.448-1-1v-10c0-0.552 0.448-1 1-1h3.586l7.707-7.707c0.286-0.286 0.716-0.372 1.090-0.217s0.617 0.519 0.617 0.924v26c0 0.404-0.244 0.769-0.617 0.924-0.124 0.051-0.254 0.076-0.383 0.076z"></path>
</symbol>
<symbol id="icon-volume-mute" viewBox="0 0 32 32">
<path d="M13 30c-0.26 0-0.516-0.102-0.707-0.293l-7.707-7.707h-3.586c-0.552 0-1-0.448-1-1v-10c0-0.552 0.448-1 1-1h3.586l7.707-7.707c0.286-0.286 0.716-0.372 1.090-0.217s0.617 0.519 0.617 0.924v26c0 0.404-0.244 0.769-0.617 0.924-0.124 0.051-0.254 0.076-0.383 0.076z"></path>
</symbol>
<symbol id="icon-volume-mute2" viewBox="0 0 32 32">
<path d="M30 19.348v2.652h-2.652l-3.348-3.348-3.348 3.348h-2.652v-2.652l3.348-3.348-3.348-3.348v-2.652h2.652l3.348 3.348 3.348-3.348h2.652v2.652l-3.348 3.348 3.348 3.348z"></path>
<path d="M13 30c-0.26 0-0.516-0.102-0.707-0.293l-7.707-7.707h-3.586c-0.552 0-1-0.448-1-1v-10c0-0.552 0.448-1 1-1h3.586l7.707-7.707c0.286-0.286 0.716-0.372 1.090-0.217s0.617 0.519 0.617 0.924v26c0 0.404-0.244 0.769-0.617 0.924-0.124 0.051-0.254 0.076-0.383 0.076z"></path>
</symbol>
<symbol id="icon-play" viewBox="0 0 32 32">
<path d="M6 4l20 12-20 12z"></path>
</symbol>
<symbol id="icon-pause" viewBox="0 0 32 32">
<path d="M4 4h10v24h-10zM18 4h10v24h-10z"></path>
</symbol>
</svg>
